# File created by Blade
# Date/Time:  Wed Jan 21 16:27:40 2015
# Frame Rate: 120.000 fps
#------------------------------------------------------
:FULLY-SPECIFIED
:DEGREES
1107
root 17.431402 8.913088 -21.148955 -182.639742 31.179662 -199.623867
Spine 47.037440 -10.804390 -13.714926
Head 6.752877 -22.794359 2.333918
LeftShoulder 5.484749 -31.234049 3.977549
LeftArm 22.782259 53.971815 -85.340775
LeftForeArm 30.929528 -0.000000 17.665609
LeftHand -7.184135 -0.000000 19.052233
LeftHandThumb1 -26.253704 0.000000 33.147579
RightShoulder 2.971266 -8.329560 6.358063
RightArm 15.925410 -6.716920 56.981821
RightForeArm -27.614776 0.000000 44.634708
RightHand -12.311750 -0.000000 -13.150150
RightHandThumb1 -24.326973 -0.000000 -32.862282
LeftUpLeg 15.296008 -10.047976 36.864631
LeftLeg 42.584139 -0.000000 -0.000000
LeftFoot 3.634271 54.215818 -0.262191
LeftToeBase 24.201302 -0.000000 -0.000000
RightUpLeg -100.519282 -41.908713 9.133521
RightLeg -5.007720 -0.000000 0.000000
RightFoot 22.223372 -42.392195 -9.054619
RightToeBase 33.118319 -0.000000 -0.000000
1108
root 17.435439 8.892236 -21.122558 -182.868330 31.100925 -199.727286
Spine 47.191116 -10.647061 -13.641038
Head 6.886178 -22.871195 1.925814
LeftShoulder 5.391569 -31.236580 4.012845
LeftArm 22.933247 54.046454 -85.297903
LeftForeArm 30.907109 -0.000000 17.769397
LeftHand -7.114897 -0.000000 19.102683
LeftHandThumb1 -26.253704 0.000000 33.147579
RightShoulder 3.045800 -8.409215 6.091107
RightArm 16.485620 -7.786475 56.335935
RightForeArm -26.788414 -0.000000 44.235036
RightHand -12.434017 -0.000000 -12.768977
RightHandThumb1 -24.326973 -0.000000 -32.862282
LeftUpLeg 15.309558 -10.151696 36.866847
LeftLeg 42.639764 -0.000000 -0.000000
LeftFoot 3.569034 54.130362 -0.329749
LeftToeBase 24.241517 -0.000000 -0.000000
RightUpLeg -100.335266 -41.966636 8.865342
RightLeg -4.972939 -0.000000 0.000000
RightFoot 22.286581 -42.341989 -9.111870
RightToeBase 33.164135 -0.000000 -0.000000
1109
root 17.439459 8.871694 -21.095125 -183.087530 31.010125 -199.818359
Spine 47.336132 -10.518609 -13.531774
Head 7.046442 -22.984117 1.474288
LeftShoulder 5.242275 -31.104170 4.006386
LeftArm 23.494126 54.303784 -84.840002
LeftForeArm 30.802058 -0.000000 17.862664
LeftHand -7.106712 -0.000000 19.095536
LeftHandThumb1 -26.253704 0.000000 33.147579
RightShoulder 3.127584 -8.395995 5.773511
RightArm 17.006445 -8.898678 55.772262
RightForeArm -25.946026 -0.000000 43.633135
RightHand -12.170482 -0.000000 -12.421602
RightHandThumb1 -24.326973 -0.000000 -32.862282
LeftUpLeg 15.309712 -10.272355 36.877227
LeftLeg 42.702513 -0.000000 -0.000000
LeftFoot 3.548680 54.015022 -0.346564
LeftToeBase 24.178183 -0.000000 -0.000000
RightUpLeg -100.164707 -42.020516 8.642313
RightLeg -4.966013 -0.000000 0.000000
RightFoot 22.399862 -42.184023 -9.299102
RightToeBase 33.368496 -0.000000 -0.000000
1110
root 17.445529 8.851709 -21.065355 -183.296298 30.909112 -199.906550
Spine 47.463154 -10.394400 -13.395579
Head 7.195870 -23.075162 1.021101
LeftShoulder 5.191895 -31.171253 3.947518
LeftArm 23.522497 54.441507 -84.766624
LeftForeArm 30.801397 -0.000000 18.125730
LeftHand -7.137731 -0.000000 19.034935
LeftHandThumb1 -26.253704 0.000000 33.147579
RightShoulder 3.210941 -8.282641 5.503649
RightArm 17.433340 -10.256686 55.170871
RightForeArm -25.272154 -0.000000 43.097692
RightHand -12.769798 0.000000 -12.695413
RightHandThumb1 -24.326973 -0.000000 -32.862282
LeftUpLeg 15.291688 -10.384251 36.899827
LeftLeg 42.747676 -0.000000 -0.000000
LeftFoot 3.443782 53.939099 -0.466152
LeftToeBase 24.248522 -0.000000 -0.000000
RightUpLeg -100.032104 -42.084822 8.422926
RightLeg -4.902376 -0.000000 0.000000
RightFoot 22.491176 -42.231222 -9.278159
RightToeBase 33.104906 -0.000000 -0.000000
1111
root 17.446891 8.832399 -21.033950 -183.568190 30.851148 -200.090445
Spine 47.606798 -10.193945 -13.398849
Head 7.343707 -23.170009 0.708239
LeftShoulder 5.081807 -31.182402 4.019801
LeftArm 23.715456 54.570019 -84.635217
LeftForeArm 30.813321 -0.000000 18.298057
LeftHand -7.117496 0.000000 18.961365
LeftHandThumb1 -26.253704 0.000000 33.147579
RightShoulder 3.316476 -8.533832 5.296967
RightArm 18.153470 -11.443909 54.463236
RightForeArm -24.426632 -0.000000 42.570905
RightHand -13.415902 -0.000000 -13.379704
RightHandThumb1 -24.326973 -0.000000 -32.862282
LeftUpLeg 15.344305 -10.542587 36.772943
LeftLeg 42.767167 -0.000000 -0.000000
LeftFoot 3.520824 53.925951 -0.371466
LeftToeBase 24.203560 -0.000000 -0.000000
RightUpLeg -99.933685 -42.081206 8.140835
RightLeg -4.765503 -0.000000 0.000000
RightFoot 22.556785 -42.048234 -9.364436
RightToeBase 33.337108 -0.000000 -0.000000
1112
root 17.449134 8.814261 -21.004918 -183.847534 30.749429 -200.269591
Spine 47.755827 -10.054952 -13.348242
Head 7.508922 -23.264117 0.301453
LeftShoulder 4.937200 -31.111686 4.017119
LeftArm 24.016898 54.651325 -84.373669
LeftForeArm 31.043223 -0.000000 18.531793
LeftHand -7.111661 0.000000 18.637851
LeftHandThumb1 -26.253704 0.000000 33.147579
RightShoulder 3.398197 -8.567094 5.034887
RightArm 18.673662 -12.548213 54.003399
RightForeArm -23.821461 -0.000000 41.969146
RightHand -14.271073 -0.000000 -14.196059
RightHandThumb1 -24.326973 -0.000000 -32.862282
LeftUpLeg 15.385244 -10.738585 36.641637
LeftLeg 42.778298 -0.000000 -0.000000
LeftFoot 3.588589 53.870830 -0.258188
LeftToeBase 24.321330 -0.000000 -0.000000
RightUpLeg -99.878586 -42.122666 7.945265
RightLeg -4.654734 -0.000000 0.000000
RightFoot 22.582137 -41.964843 -9.321368
RightToeBase 33.371716 -0.000000 -0.000000
1113
root 17.454224 8.794445 -20.971471 -184.137673 30.654905 -200.459265
Spine 47.919334 -9.870959 -13.329014
Head 7.616623 -23.368673 -0.003969
LeftShoulder 4.882079 -31.238089 4.080170
LeftArm 23.745218 54.481454 -84.724163
LeftForeArm 31.230708 -0.000000 18.688334
LeftHand -6.943536 -0.000000 18.577047
LeftHandThumb1 -26.253704 0.000000 33.147579
RightShoulder 3.492276 -8.677295 4.834356
RightArm 19.219320 -13.427438 53.572229
RightForeArm -23.026553 -0.000000 41.323606
RightHand -14.861549 -0.000000 -14.792537
RightHandThumb1 -24.326973 -0.000000 -32.862282
LeftUpLeg 15.419847 -10.922617 36.515862
LeftLeg 42.796427 -0.000000 -0.000000
LeftFoot 3.609285 53.857900 -0.246801
LeftToeBase 24.584199 -0.000000 -0.000000
RightUpLeg -99.744834 -42.159589 7.622088
RightLeg -4.530570 -0.000000 0.000000
RightFoot 22.652563 -41.835498 -9.453926
RightToeBase 33.507135 -0.000000 -0.000000
